<svg width="254" height="101" viewBox="0 0 254 101" fill="none" xmlns="http://www.w3.org/2000/svg">
<path d="M0.875 29.6563V27.2266H13.6406V29.6563H8.69531V43.2266H5.82031V29.6563H0.875ZM18.4047 36.1953V43.2266H15.5766V27.2266H18.3422V33.2656H18.4828C18.7641 32.5885 19.199 32.0547 19.7875 31.6641C20.3813 31.2682 21.1365 31.0703 22.0531 31.0703C22.8865 31.0703 23.613 31.2448 24.2328 31.5937C24.8526 31.9427 25.3318 32.4531 25.6703 33.125C26.0141 33.7969 26.1859 34.6172 26.1859 35.5859V43.2266H23.3578V36.0234C23.3578 35.2161 23.1495 34.5885 22.7328 34.1406C22.3214 33.6875 21.7432 33.4609 20.9984 33.4609C20.4984 33.4609 20.0505 33.5703 19.6547 33.7891C19.2641 34.0026 18.9568 34.3125 18.7328 34.7188C18.5141 35.125 18.4047 35.6172 18.4047 36.1953ZM33.9813 43.4609C32.7781 43.4609 31.7391 43.2109 30.8641 42.7109C29.9943 42.2057 29.325 41.4922 28.8563 40.5703C28.3875 39.6432 28.1531 38.5521 28.1531 37.2969C28.1531 36.0625 28.3875 34.9792 28.8563 34.0469C29.3302 33.1094 29.9917 32.3802 30.8406 31.8594C31.6896 31.3333 32.687 31.0703 33.8328 31.0703C34.5724 31.0703 35.2703 31.1901 35.9266 31.4297C36.588 31.6641 37.1714 32.0286 37.6766 32.5234C38.187 33.0182 38.588 33.6484 38.8797 34.4141C39.1714 35.1745 39.3172 36.0807 39.3172 37.1328V38H29.4813V36.0938H36.6063C36.601 35.5521 36.4839 35.0703 36.2547 34.6484C36.0255 34.2214 35.7052 33.8854 35.2938 33.6406C34.8875 33.3958 34.4135 33.2734 33.8719 33.2734C33.2938 33.2734 32.7859 33.4141 32.3484 33.6953C31.9109 33.9714 31.5698 34.3359 31.325 34.7891C31.0854 35.237 30.963 35.7292 30.9578 36.2656V37.9297C30.9578 38.6276 31.0854 39.2266 31.3406 39.7266C31.5958 40.2214 31.9526 40.6016 32.4109 40.8672C32.8693 41.1276 33.4057 41.2578 34.0203 41.2578C34.4318 41.2578 34.8042 41.2005 35.1375 41.0859C35.4708 40.9661 35.7599 40.7917 36.0047 40.5625C36.2495 40.3333 36.4344 40.0495 36.5594 39.7109L39.2 40.0078C39.0333 40.7057 38.7156 41.3151 38.2469 41.8359C37.7833 42.3516 37.1896 42.7526 36.4656 43.0391C35.7417 43.3203 34.9135 43.4609 33.9813 43.4609ZM51.898 43.4453C50.8564 43.4453 49.9241 43.25 49.1012 42.8594C48.2783 42.4635 47.6246 41.9219 47.1402 41.2344C46.6611 40.5469 46.4059 39.7604 46.3746 38.875H49.1871C49.2392 39.5312 49.523 40.0677 50.0387 40.4844C50.5543 40.8958 51.1741 41.1016 51.898 41.1016C52.4658 41.1016 52.971 40.9714 53.4137 40.7109C53.8564 40.4505 54.2053 40.0885 54.4605 39.625C54.7158 39.1615 54.8408 38.6328 54.8355 38.0391C54.8408 37.4349 54.7132 36.8984 54.4527 36.4297C54.1923 35.9609 53.8355 35.5937 53.3824 35.3281C52.9293 35.0573 52.4085 34.9219 51.8199 34.9219C51.3408 34.9167 50.8694 35.0052 50.4059 35.1875C49.9423 35.3698 49.5751 35.6094 49.3043 35.9062L46.6871 35.4766L47.523 27.2266H56.8043V29.6484H49.9215L49.4605 33.8906H49.5543C49.8512 33.5417 50.2704 33.2526 50.8121 33.0234C51.3538 32.7891 51.9475 32.6719 52.5934 32.6719C53.5621 32.6719 54.4267 32.901 55.1871 33.3594C55.9475 33.8125 56.5465 34.4375 56.984 35.2344C57.4215 36.0312 57.6402 36.9427 57.6402 37.9687C57.6402 39.026 57.3954 39.9687 56.9059 40.7969C56.4215 41.6198 55.747 42.2682 54.8824 42.7422C54.023 43.2109 53.0283 43.4453 51.898 43.4453ZM74.4301 34.3984L71.852 34.6797C71.779 34.4193 71.6514 34.1745 71.4691 33.9453C71.2921 33.7161 71.0525 33.5312 70.7504 33.3906C70.4483 33.25 70.0785 33.1797 69.641 33.1797C69.0525 33.1797 68.5577 33.3073 68.1566 33.5625C67.7608 33.8177 67.5655 34.1484 67.5707 34.5547C67.5655 34.9036 67.6931 35.1875 67.9535 35.4062C68.2191 35.625 68.6566 35.8047 69.266 35.9453L71.3129 36.3828C72.4483 36.6276 73.2921 37.0156 73.8441 37.5469C74.4014 38.0781 74.6827 38.7734 74.6879 39.6328C74.6827 40.388 74.4613 41.0547 74.0238 41.6328C73.5915 42.2057 72.99 42.6536 72.2191 42.9766C71.4483 43.2995 70.5629 43.4609 69.5629 43.4609C68.0941 43.4609 66.9118 43.1536 66.016 42.5391C65.1202 41.9193 64.5863 41.0573 64.4145 39.9531L67.1723 39.6875C67.2973 40.2292 67.5629 40.638 67.9691 40.9141C68.3754 41.1901 68.904 41.3281 69.5551 41.3281C70.227 41.3281 70.766 41.1901 71.1723 40.9141C71.5837 40.638 71.7895 40.2969 71.7895 39.8906C71.7895 39.5469 71.6566 39.263 71.391 39.0391C71.1306 38.8151 70.7243 38.6432 70.1723 38.5234L68.1254 38.0937C66.9743 37.8542 66.1228 37.4505 65.5707 36.8828C65.0186 36.3099 64.7452 35.5859 64.7504 34.7109C64.7452 33.9714 64.9457 33.3307 65.352 32.7891C65.7634 32.2422 66.3337 31.8203 67.0629 31.5234C67.7973 31.2214 68.6436 31.0703 69.602 31.0703C71.0082 31.0703 72.115 31.3698 72.9223 31.9688C73.7348 32.5677 74.2374 33.3776 74.4301 34.3984ZM82.6121 31.2266V33.4141H75.7137V31.2266H82.6121ZM77.4168 28.3516H80.2449V39.6172C80.2449 39.9974 80.3022 40.2891 80.4168 40.4922C80.5366 40.6901 80.6928 40.8255 80.8855 40.8984C81.0783 40.9714 81.2918 41.0078 81.5262 41.0078C81.7033 41.0078 81.8647 40.9948 82.0105 40.9687C82.1616 40.9427 82.2762 40.9193 82.3543 40.8984L82.8309 43.1094C82.6798 43.1615 82.4637 43.2187 82.1824 43.2812C81.9064 43.3438 81.5678 43.3802 81.1668 43.3906C80.4585 43.4115 79.8204 43.3047 79.2527 43.0703C78.685 42.8307 78.2345 42.4609 77.9012 41.9609C77.573 41.4609 77.4116 40.8359 77.4168 40.0859V28.3516ZM89.7609 43.4609C88.5578 43.4609 87.5188 43.2109 86.6438 42.7109C85.774 42.2057 85.1047 41.4922 84.6359 40.5703C84.1672 39.6432 83.9328 38.5521 83.9328 37.2969C83.9328 36.0625 84.1672 34.9792 84.6359 34.0469C85.1099 33.1094 85.7714 32.3802 86.6203 31.8594C87.4693 31.3333 88.4667 31.0703 89.6125 31.0703C90.3521 31.0703 91.05 31.1901 91.7063 31.4297C92.3677 31.6641 92.951 32.0286 93.4563 32.5234C93.9667 33.0182 94.3677 33.6484 94.6594 34.4141C94.951 35.1745 95.0969 36.0807 95.0969 37.1328V38H85.2609V36.0938H92.3859C92.3807 35.5521 92.2635 35.0703 92.0344 34.6484C91.8052 34.2214 91.4849 33.8854 91.0734 33.6406C90.6672 33.3958 90.1932 33.2734 89.6516 33.2734C89.0734 33.2734 88.5656 33.4141 88.1281 33.6953C87.6906 33.9714 87.3495 34.3359 87.1047 34.7891C86.8651 35.237 86.7427 35.7292 86.7375 36.2656V37.9297C86.7375 38.6276 86.8651 39.2266 87.1203 39.7266C87.3755 40.2214 87.7323 40.6016 88.1906 40.8672C88.649 41.1276 89.1854 41.2578 89.8 41.2578C90.2115 41.2578 90.5839 41.2005 90.9172 41.0859C91.2505 40.9661 91.5396 40.7917 91.7844 40.5625C92.0292 40.3333 92.2141 40.0495 92.3391 39.7109L94.9797 40.0078C94.813 40.7057 94.4953 41.3151 94.0266 41.8359C93.563 42.3516 92.9693 42.7526 92.2453 43.0391C91.5214 43.3203 90.6932 43.4609 89.7609 43.4609ZM97.0895 47.7266V31.2266H99.8707V33.2109H100.035C100.181 32.9193 100.386 32.6094 100.652 32.2812C100.918 31.9479 101.277 31.6641 101.73 31.4297C102.183 31.1901 102.761 31.0703 103.464 31.0703C104.392 31.0703 105.227 31.3073 105.972 31.7812C106.722 32.25 107.316 32.9453 107.754 33.8672C108.196 34.7839 108.418 35.9089 108.418 37.2422C108.418 38.5599 108.201 39.6797 107.769 40.6016C107.337 41.5234 106.748 42.2266 106.004 42.7109C105.259 43.1953 104.415 43.4375 103.472 43.4375C102.785 43.4375 102.214 43.3229 101.761 43.0937C101.308 42.8646 100.944 42.5885 100.668 42.2656C100.397 41.9375 100.186 41.6276 100.035 41.3359H99.9176V47.7266H97.0895ZM99.8629 37.2266C99.8629 38.0026 99.9723 38.6823 100.191 39.2656C100.415 39.849 100.735 40.3047 101.152 40.6328C101.574 40.9557 102.084 41.1172 102.683 41.1172C103.308 41.1172 103.832 40.9505 104.254 40.6172C104.675 40.2786 104.993 39.8177 105.207 39.2344C105.425 38.6458 105.535 37.9766 105.535 37.2266C105.535 36.4818 105.428 35.8203 105.214 35.2422C105.001 34.6641 104.683 34.2109 104.261 33.8828C103.839 33.5547 103.313 33.3906 102.683 33.3906C102.079 33.3906 101.566 33.5495 101.144 33.8672C100.722 34.1849 100.402 34.6302 100.183 35.2031C99.9697 35.776 99.8629 36.4505 99.8629 37.2266ZM119.924 34.3984L117.346 34.6797C117.273 34.4193 117.145 34.1745 116.963 33.9453C116.786 33.7161 116.546 33.5312 116.244 33.3906C115.942 33.25 115.572 33.1797 115.135 33.1797C114.546 33.1797 114.051 33.3073 113.65 33.5625C113.255 33.8177 113.059 34.1484 113.064 34.5547C113.059 34.9036 113.187 35.1875 113.447 35.4062C113.713 35.625 114.15 35.8047 114.76 35.9453L116.807 36.3828C117.942 36.6276 118.786 37.0156 119.338 37.5469C119.895 38.0781 120.176 38.7734 120.182 39.6328C120.176 40.388 119.955 41.0547 119.518 41.6328C119.085 42.2057 118.484 42.6536 117.713 42.9766C116.942 43.2995 116.057 43.4609 115.057 43.4609C113.588 43.4609 112.406 43.1536 111.51 42.5391C110.614 41.9193 110.08 41.0573 109.908 39.9531L112.666 39.6875C112.791 40.2292 113.057 40.638 113.463 40.9141C113.869 41.1901 114.398 41.3281 115.049 41.3281C115.721 41.3281 116.26 41.1901 116.666 40.9141C117.077 40.638 117.283 40.2969 117.283 39.8906C117.283 39.5469 117.15 39.263 116.885 39.0391C116.624 38.8151 116.218 38.6432 115.666 38.5234L113.619 38.0937C112.468 37.8542 111.617 37.4505 111.064 36.8828C110.512 36.3099 110.239 35.5859 110.244 34.7109C110.239 33.9714 110.439 33.3307 110.846 32.7891C111.257 32.2422 111.827 31.8203 112.557 31.5234C113.291 31.2214 114.137 31.0703 115.096 31.0703C116.502 31.0703 117.609 31.3698 118.416 31.9688C119.229 32.5677 119.731 33.3776 119.924 34.3984ZM133.249 31.2266V33.4141H126.155V31.2266H133.249ZM127.929 43.2266V30.0937C127.929 29.2865 128.095 28.6146 128.429 28.0781C128.767 27.5417 129.22 27.1406 129.788 26.875C130.356 26.6094 130.986 26.4766 131.679 26.4766C132.168 26.4766 132.603 26.5156 132.983 26.5937C133.363 26.6719 133.645 26.7422 133.827 26.8047L133.264 28.9922C133.145 28.9557 132.994 28.9193 132.811 28.8828C132.629 28.8411 132.426 28.8203 132.202 28.8203C131.676 28.8203 131.304 28.9479 131.085 29.2031C130.871 29.4531 130.764 29.8125 130.764 30.2812V43.2266H127.929ZM139.847 43.4609C138.675 43.4609 137.659 43.2031 136.8 42.6875C135.941 42.1719 135.274 41.4505 134.8 40.5234C134.331 39.5964 134.097 38.513 134.097 37.2734C134.097 36.0339 134.331 34.9479 134.8 34.0156C135.274 33.0833 135.941 32.3594 136.8 31.8438C137.659 31.3281 138.675 31.0703 139.847 31.0703C141.019 31.0703 142.034 31.3281 142.894 31.8438C143.753 32.3594 144.417 33.0833 144.886 34.0156C145.36 34.9479 145.597 36.0339 145.597 37.2734C145.597 38.513 145.36 39.5964 144.886 40.5234C144.417 41.4505 143.753 42.1719 142.894 42.6875C142.034 43.2031 141.019 43.4609 139.847 43.4609ZM139.863 41.1953C140.498 41.1953 141.029 41.0208 141.456 40.6719C141.883 40.3177 142.201 39.8437 142.409 39.25C142.623 38.6562 142.73 37.9948 142.73 37.2656C142.73 36.5312 142.623 35.8672 142.409 35.2734C142.201 34.6745 141.883 34.1979 141.456 33.8437C141.029 33.4896 140.498 33.3125 139.863 33.3125C139.211 33.3125 138.67 33.4896 138.238 33.8437C137.81 34.1979 137.49 34.6745 137.277 35.2734C137.068 35.8672 136.964 36.5312 136.964 37.2656C136.964 37.9948 137.068 38.6562 137.277 39.25C137.49 39.8437 137.81 40.3177 138.238 40.6719C138.67 41.0208 139.211 41.1953 139.863 41.1953ZM147.597 43.2266V31.2266H150.339V33.2266H150.464C150.683 32.5339 151.058 32 151.589 31.625C152.126 31.2448 152.738 31.0547 153.425 31.0547C153.582 31.0547 153.756 31.0625 153.949 31.0781C154.147 31.0885 154.311 31.1068 154.441 31.1328V33.7344C154.321 33.6927 154.131 33.6562 153.871 33.625C153.615 33.5885 153.368 33.5703 153.129 33.5703C152.613 33.5703 152.149 33.6823 151.738 33.9062C151.332 34.125 151.011 34.4297 150.777 34.8203C150.543 35.2109 150.425 35.6615 150.425 36.1719V43.2266H147.597ZM164.43 43.4688C163.67 43.4688 162.985 43.3333 162.375 43.0625C161.771 42.7865 161.292 42.3802 160.938 41.8437C160.589 41.3073 160.414 40.6458 160.414 39.8594C160.414 39.1823 160.539 38.6224 160.789 38.1797C161.039 37.737 161.381 37.3828 161.813 37.1172C162.245 36.8516 162.732 36.651 163.274 36.5156C163.821 36.375 164.386 36.2734 164.969 36.2109C165.672 36.138 166.243 36.0729 166.68 36.0156C167.118 35.9531 167.435 35.8594 167.633 35.7344C167.836 35.6042 167.938 35.4036 167.938 35.1328V35.0859C167.938 34.4974 167.763 34.0417 167.414 33.7187C167.066 33.3958 166.563 33.2344 165.907 33.2344C165.214 33.2344 164.664 33.3854 164.258 33.6875C163.857 33.9896 163.586 34.3464 163.446 34.7578L160.805 34.3828C161.013 33.6536 161.357 33.0443 161.836 32.5547C162.316 32.0599 162.901 31.6901 163.594 31.4453C164.287 31.1953 165.052 31.0703 165.891 31.0703C166.469 31.0703 167.045 31.138 167.618 31.2734C168.191 31.4089 168.714 31.6328 169.188 31.9453C169.662 32.2526 170.042 32.6719 170.329 33.2031C170.62 33.7344 170.766 34.3984 170.766 35.1953V43.2266H168.047V41.5781H167.954C167.782 41.9115 167.539 42.224 167.227 42.5156C166.92 42.8021 166.532 43.0339 166.063 43.2109C165.599 43.3828 165.055 43.4688 164.43 43.4688ZM165.164 41.3906C165.732 41.3906 166.224 41.2786 166.641 41.0547C167.058 40.8255 167.378 40.5234 167.602 40.1484C167.831 39.7734 167.946 39.3646 167.946 38.9219V37.5078C167.857 37.5807 167.706 37.6484 167.493 37.7109C167.284 37.7734 167.05 37.8281 166.789 37.875C166.529 37.9219 166.271 37.9635 166.016 38C165.761 38.0365 165.539 38.0677 165.352 38.0937C164.93 38.151 164.552 38.2448 164.219 38.375C163.886 38.5052 163.623 38.6875 163.43 38.9219C163.237 39.151 163.141 39.4479 163.141 39.8125C163.141 40.3333 163.331 40.7266 163.711 40.9922C164.092 41.2578 164.576 41.3906 165.164 41.3906ZM185.915 38.1797V31.2266H188.743V43.2266H186.001V41.0937H185.876C185.605 41.7656 185.16 42.3151 184.54 42.7422C183.926 43.1693 183.168 43.3828 182.267 43.3828C181.48 43.3828 180.785 43.2083 180.181 42.8594C179.582 42.5052 179.113 41.9922 178.775 41.3203C178.436 40.6432 178.267 39.8255 178.267 38.8672V31.2266H181.095V38.4297C181.095 39.1901 181.303 39.7943 181.72 40.2422C182.137 40.6901 182.683 40.9141 183.361 40.9141C183.777 40.9141 184.181 40.8125 184.571 40.6094C184.962 40.4062 185.282 40.1042 185.532 39.7031C185.788 39.2969 185.915 38.7891 185.915 38.1797ZM194.08 36.1953V43.2266H191.252V31.2266H193.955V33.2656H194.095C194.371 32.5937 194.811 32.0599 195.416 31.6641C196.025 31.2682 196.778 31.0703 197.673 31.0703C198.502 31.0703 199.223 31.2474 199.837 31.6016C200.457 31.9557 200.936 32.4687 201.275 33.1406C201.619 33.8125 201.788 34.6276 201.783 35.5859V43.2266H198.955V36.0234C198.955 35.2214 198.746 34.5937 198.33 34.1406C197.918 33.6875 197.348 33.4609 196.619 33.4609C196.124 33.4609 195.684 33.5703 195.298 33.7891C194.918 34.0026 194.619 34.3125 194.4 34.7188C194.186 35.125 194.08 35.6172 194.08 36.1953ZM204.258 43.2266V31.2266H207.086V43.2266H204.258ZM205.68 29.5234C205.232 29.5234 204.846 29.375 204.523 29.0781C204.201 28.776 204.039 28.4141 204.039 27.9922C204.039 27.5651 204.201 27.2031 204.523 26.9062C204.846 26.6042 205.232 26.4531 205.68 26.4531C206.133 26.4531 206.518 26.6042 206.836 26.9062C207.159 27.2031 207.32 27.5651 207.32 27.9922C207.32 28.4141 207.159 28.776 206.836 29.0781C206.518 29.375 206.133 29.5234 205.68 29.5234ZM217.602 47.7266V41.3359H217.485C217.339 41.6276 217.128 41.9375 216.852 42.2656C216.576 42.5885 216.211 42.8646 215.758 43.0937C215.305 43.3229 214.735 43.4375 214.047 43.4375C213.105 43.4375 212.261 43.1953 211.516 42.7109C210.771 42.2266 210.183 41.5234 209.75 40.6016C209.318 39.6797 209.102 38.5599 209.102 37.2422C209.102 35.9089 209.321 34.7839 209.758 33.8672C210.201 32.9453 210.797 32.25 211.547 31.7812C212.297 31.3073 213.133 31.0703 214.055 31.0703C214.758 31.0703 215.336 31.1901 215.789 31.4297C216.243 31.6641 216.602 31.9479 216.868 32.2812C217.133 32.6094 217.339 32.9193 217.485 33.2109H217.657V31.2266H220.438V47.7266H217.602ZM214.836 41.1172C215.435 41.1172 215.946 40.9557 216.368 40.6328C216.789 40.3047 217.11 39.849 217.329 39.2656C217.547 38.6823 217.657 38.0026 217.657 37.2266C217.657 36.4505 217.547 35.776 217.329 35.2031C217.115 34.6302 216.797 34.1849 216.375 33.8672C215.959 33.5495 215.446 33.3906 214.836 33.3906C214.206 33.3906 213.68 33.5547 213.258 33.8828C212.836 34.2109 212.519 34.6641 212.305 35.2422C212.092 35.8203 211.985 36.4818 211.985 37.2266C211.985 37.9766 212.092 38.6458 212.305 39.2344C212.524 39.8177 212.844 40.2786 213.266 40.6172C213.693 40.9505 214.217 41.1172 214.836 41.1172ZM230.593 38.1797V31.2266H233.421V43.2266H230.679V41.0937H230.554C230.283 41.7656 229.837 42.3151 229.218 42.7422C228.603 43.1693 227.845 43.3828 226.944 43.3828C226.158 43.3828 225.462 43.2083 224.858 42.8594C224.259 42.5052 223.79 41.9922 223.452 41.3203C223.113 40.6432 222.944 39.8255 222.944 38.8672V31.2266H225.772V38.4297C225.772 39.1901 225.981 39.7943 226.397 40.2422C226.814 40.6901 227.361 40.9141 228.038 40.9141C228.455 40.9141 228.858 40.8125 229.249 40.6094C229.639 40.4062 229.96 40.1042 230.21 39.7031C230.465 39.2969 230.593 38.7891 230.593 38.1797ZM241.241 43.4609C240.038 43.4609 238.999 43.2109 238.124 42.7109C237.254 42.2057 236.585 41.4922 236.116 40.5703C235.648 39.6432 235.413 38.5521 235.413 37.2969C235.413 36.0625 235.648 34.9792 236.116 34.0469C236.59 33.1094 237.252 32.3802 238.101 31.8594C238.95 31.3333 239.947 31.0703 241.093 31.0703C241.833 31.0703 242.53 31.1901 243.187 31.4297C243.848 31.6641 244.432 32.0286 244.937 32.5234C245.447 33.0182 245.848 33.6484 246.14 34.4141C246.432 35.1745 246.577 36.0807 246.577 37.1328V38H236.741V36.0938H243.866C243.861 35.5521 243.744 35.0703 243.515 34.6484C243.286 34.2214 242.965 33.8854 242.554 33.6406C242.148 33.3958 241.674 33.2734 241.132 33.2734C240.554 33.2734 240.046 33.4141 239.609 33.6953C239.171 33.9714 238.83 34.3359 238.585 34.7891C238.346 35.237 238.223 35.7292 238.218 36.2656V37.9297C238.218 38.6276 238.346 39.2266 238.601 39.7266C238.856 40.2214 239.213 40.6016 239.671 40.8672C240.129 41.1276 240.666 41.2578 241.28 41.2578C241.692 41.2578 242.064 41.2005 242.398 41.0859C242.731 40.9661 243.02 40.7917 243.265 40.5625C243.51 40.3333 243.695 40.0495 243.82 39.7109L246.46 40.0078C246.293 40.7057 245.976 41.3151 245.507 41.8359C245.043 42.3516 244.45 42.7526 243.726 43.0391C243.002 43.3203 242.174 43.4609 241.241 43.4609ZM10.9375 60.3984L8.35938 60.6797C8.28646 60.4193 8.15885 60.1745 7.97656 59.9453C7.79948 59.7161 7.5599 59.5312 7.25781 59.3906C6.95573 59.25 6.58594 59.1797 6.14844 59.1797C5.5599 59.1797 5.0651 59.3073 4.66406 59.5625C4.26823 59.8177 4.07292 60.1484 4.07813 60.5547C4.07292 60.9036 4.20052 61.1875 4.46094 61.4062C4.72656 61.625 5.16406 61.8047 5.77344 61.9453L7.82031 62.3828C8.95573 62.6276 9.79948 63.0156 10.3516 63.5469C10.9089 64.0781 11.1901 64.7734 11.1953 65.6328C11.1901 66.388 10.9688 67.0547 10.5313 67.6328C10.099 68.2057 9.4974 68.6536 8.72656 68.9766C7.95573 69.2995 7.07031 69.4609 6.07031 69.4609C4.60156 69.4609 3.41927 69.1536 2.52344 68.5391C1.6276 67.9193 1.09375 67.0573 0.921875 65.9531L3.67969 65.6875C3.80469 66.2292 4.07031 66.638 4.47656 66.9141C4.88281 67.1901 5.41146 67.3281 6.0625 67.3281C6.73438 67.3281 7.27344 67.1901 7.67969 66.9141C8.09115 66.638 8.29688 66.2969 8.29688 65.8906C8.29688 65.5469 8.16406 65.263 7.89844 65.0391C7.63802 64.8151 7.23177 64.6432 6.67969 64.5234L4.63281 64.0937C3.48177 63.8542 2.63021 63.4505 2.07812 62.8828C1.52604 62.3099 1.2526 61.5859 1.25781 60.7109C1.2526 59.9714 1.45313 59.3307 1.85938 58.7891C2.27083 58.2422 2.84115 57.8203 3.57031 57.5234C4.30469 57.2214 5.15104 57.0703 6.10938 57.0703C7.51563 57.0703 8.6224 57.3698 9.42969 57.9688C10.2422 58.5677 10.7448 59.3776 10.9375 60.3984ZM18.4398 69.4609C17.2367 69.4609 16.1977 69.2109 15.3227 68.7109C14.4529 68.2057 13.7836 67.4922 13.3148 66.5703C12.8461 65.6432 12.6117 64.5521 12.6117 63.2969C12.6117 62.0625 12.8461 60.9792 13.3148 60.0469C13.7888 59.1094 14.4503 58.3802 15.2992 57.8594C16.1482 57.3333 17.1456 57.0703 18.2914 57.0703C19.031 57.0703 19.7289 57.1901 20.3852 57.4297C21.0466 57.6641 21.6299 58.0286 22.1352 58.5234C22.6456 59.0182 23.0466 59.6484 23.3383 60.4141C23.6299 61.1745 23.7758 62.0807 23.7758 63.1328V64H13.9398V62.0938H21.0648C21.0596 61.5521 20.9424 61.0703 20.7133 60.6484C20.4841 60.2214 20.1638 59.8854 19.7523 59.6406C19.3461 59.3958 18.8721 59.2734 18.3305 59.2734C17.7523 59.2734 17.2445 59.4141 16.807 59.6953C16.3695 59.9714 16.0284 60.3359 15.7836 60.7891C15.544 61.237 15.4216 61.7292 15.4164 62.2656V63.9297C15.4164 64.6276 15.544 65.2266 15.7992 65.7266C16.0544 66.2214 16.4112 66.6016 16.8695 66.8672C17.3279 67.1276 17.8643 67.2578 18.4789 67.2578C18.8904 67.2578 19.2628 67.2005 19.5961 67.0859C19.9294 66.9661 20.2185 66.7917 20.4633 66.5625C20.7081 66.3333 20.893 66.0495 21.018 65.7109L23.6586 66.0078C23.4919 66.7057 23.1742 67.3151 22.7055 67.8359C22.2419 68.3516 21.6482 68.7526 20.9242 69.0391C20.2003 69.3203 19.3721 69.4609 18.4398 69.4609ZM28.5965 53.2266V69.2266H25.7684V53.2266H28.5965ZM33.9328 53.2266V69.2266H31.1047V53.2266H33.9328ZM36.441 69.2266V57.2266H39.2691V69.2266H36.441ZM37.8629 55.5234C37.415 55.5234 37.0296 55.375 36.7066 55.0781C36.3837 54.776 36.2223 54.4141 36.2223 53.9922C36.2223 53.5651 36.3837 53.2031 36.7066 52.9062C37.0296 52.6042 37.415 52.4531 37.8629 52.4531C38.316 52.4531 38.7014 52.6042 39.0191 52.9062C39.3421 53.2031 39.5035 53.5651 39.5035 53.9922C39.5035 54.4141 39.3421 54.776 39.0191 55.0781C38.7014 55.375 38.316 55.5234 37.8629 55.5234ZM44.6055 62.1953V69.2266H41.7773V57.2266H44.4805V59.2656H44.6211C44.8971 58.5937 45.3372 58.0599 45.9414 57.6641C46.5508 57.2682 47.3034 57.0703 48.1992 57.0703C49.0273 57.0703 49.7487 57.2474 50.3633 57.6016C50.9831 57.9557 51.4622 58.4687 51.8008 59.1406C52.1445 59.8125 52.3138 60.6276 52.3086 61.5859V69.2266H49.4805V62.0234C49.4805 61.2214 49.2721 60.5937 48.8555 60.1406C48.444 59.6875 47.8737 59.4609 47.1445 59.4609C46.6497 59.4609 46.2096 59.5703 45.8242 59.7891C45.444 60.0026 45.1445 60.3125 44.9258 60.7188C44.7122 61.125 44.6055 61.6172 44.6055 62.1953ZM60.0023 73.9766C58.9867 73.9766 58.1143 73.8385 57.3852 73.5625C56.656 73.2917 56.0701 72.9271 55.6273 72.4687C55.1846 72.0104 54.8773 71.5026 54.7055 70.9453L57.2523 70.3281C57.3669 70.5625 57.5336 70.7943 57.7523 71.0234C57.9711 71.2578 58.2654 71.4505 58.6352 71.6016C59.0102 71.7578 59.4815 71.8359 60.0492 71.8359C60.8513 71.8359 61.5154 71.6406 62.0414 71.25C62.5674 70.8646 62.8305 70.2292 62.8305 69.3438V67.0703H62.6898C62.544 67.362 62.3305 67.6615 62.0492 67.9687C61.7732 68.276 61.406 68.5339 60.9477 68.7422C60.4945 68.9505 59.9242 69.0547 59.2367 69.0547C58.3148 69.0547 57.4789 68.8385 56.7289 68.4062C55.9841 67.9687 55.3904 67.3177 54.9477 66.4531C54.5102 65.5833 54.2914 64.4948 54.2914 63.1875C54.2914 61.8698 54.5102 60.7578 54.9477 59.8516C55.3904 58.9401 55.9867 58.25 56.7367 57.7812C57.4867 57.3073 58.3227 57.0703 59.2445 57.0703C59.9477 57.0703 60.5258 57.1901 60.9789 57.4297C61.4372 57.6641 61.8018 57.9479 62.0727 58.2812C62.3435 58.6094 62.5492 58.9193 62.6898 59.2109H62.8461V57.2266H65.6352V69.4219C65.6352 70.4479 65.3904 71.2969 64.9008 71.9688C64.4112 72.6406 63.7419 73.1432 62.893 73.4766C62.044 73.8099 61.0805 73.9766 60.0023 73.9766ZM60.0258 66.8359C60.6247 66.8359 61.1352 66.6901 61.557 66.3984C61.9789 66.1068 62.2992 65.6875 62.518 65.1406C62.7367 64.5937 62.8461 63.9375 62.8461 63.1719C62.8461 62.4167 62.7367 61.7552 62.518 61.1875C62.3044 60.6198 61.9867 60.1797 61.5648 59.8672C61.1482 59.5495 60.6352 59.3906 60.0258 59.3906C59.3956 59.3906 58.8695 59.5547 58.4477 59.8828C58.0258 60.2109 57.7081 60.6615 57.4945 61.2344C57.281 61.8021 57.1742 62.4479 57.1742 63.1719C57.1742 63.9063 57.281 64.5495 57.4945 65.1016C57.7133 65.6484 58.0336 66.0755 58.4555 66.3828C58.8826 66.6849 59.406 66.8359 60.0258 66.8359ZM76.6438 69.4688C75.8833 69.4688 75.1984 69.3333 74.5891 69.0625C73.9849 68.7865 73.5057 68.3802 73.1516 67.8437C72.8026 67.3073 72.6281 66.6458 72.6281 65.8594C72.6281 65.1823 72.7531 64.6224 73.0031 64.1797C73.2531 63.737 73.5943 63.3828 74.0266 63.1172C74.4589 62.8516 74.9458 62.651 75.4875 62.5156C76.0344 62.375 76.5995 62.2734 77.1828 62.2109C77.8859 62.138 78.4563 62.0729 78.8938 62.0156C79.3313 61.9531 79.649 61.8594 79.8469 61.7344C80.05 61.6042 80.1516 61.4036 80.1516 61.1328V61.0859C80.1516 60.4974 79.9771 60.0417 79.6281 59.7187C79.2792 59.3958 78.7766 59.2344 78.1203 59.2344C77.4276 59.2344 76.8781 59.3854 76.4719 59.6875C76.0708 59.9896 75.8 60.3464 75.6594 60.7578L73.0188 60.3828C73.2271 59.6536 73.5708 59.0443 74.05 58.5547C74.5292 58.0599 75.1151 57.6901 75.8078 57.4453C76.5005 57.1953 77.2661 57.0703 78.1047 57.0703C78.6828 57.0703 79.2583 57.138 79.8313 57.2734C80.4042 57.4089 80.9276 57.6328 81.4016 57.9453C81.8755 58.2526 82.2557 58.6719 82.5422 59.2031C82.8339 59.7344 82.9797 60.3984 82.9797 61.1953V69.2266H80.2609V67.5781H80.1672C79.9953 67.9115 79.7531 68.224 79.4406 68.5156C79.1333 68.8021 78.7453 69.0339 78.2766 69.2109C77.813 69.3828 77.2688 69.4688 76.6438 69.4688ZM77.3781 67.3906C77.9458 67.3906 78.438 67.2786 78.8547 67.0547C79.2714 66.8255 79.5917 66.5234 79.8156 66.1484C80.0448 65.7734 80.1594 65.3646 80.1594 64.9219V63.5078C80.0708 63.5807 79.9198 63.6484 79.7063 63.7109C79.4979 63.7734 79.2635 63.8281 79.0031 63.875C78.7427 63.9219 78.4849 63.9635 78.2297 64C77.9745 64.0365 77.7531 64.0677 77.5656 64.0937C77.1438 64.151 76.7661 64.2448 76.4328 64.375C76.0995 64.5052 75.8365 64.6875 75.6438 64.9219C75.451 65.151 75.3547 65.4479 75.3547 65.8125C75.3547 66.3333 75.5448 66.7266 75.925 66.9922C76.3052 67.2578 76.7896 67.3906 77.3781 67.3906ZM88.2516 62.1953V69.2266H85.4234V57.2266H88.1266V59.2656H88.2672C88.5432 58.5937 88.9833 58.0599 89.5875 57.6641C90.1969 57.2682 90.9495 57.0703 91.8453 57.0703C92.6734 57.0703 93.3948 57.2474 94.0094 57.6016C94.6292 57.9557 95.1083 58.4687 95.4469 59.1406C95.7906 59.8125 95.9599 60.6276 95.9547 61.5859V69.2266H93.1266V62.0234C93.1266 61.2214 92.9182 60.5937 92.5016 60.1406C92.0901 59.6875 91.5198 59.4609 90.7906 59.4609C90.2958 59.4609 89.8557 59.5703 89.4703 59.7891C89.0901 60.0026 88.7906 60.3125 88.5719 60.7188C88.3583 61.125 88.2516 61.6172 88.2516 62.1953ZM102.883 69.4375C101.94 69.4375 101.096 69.1953 100.352 68.7109C99.6068 68.2266 99.0182 67.5234 98.5859 66.6016C98.1536 65.6797 97.9375 64.5599 97.9375 63.2422C97.9375 61.9089 98.1563 60.7839 98.5938 59.8672C99.0365 58.9453 99.6328 58.25 100.383 57.7812C101.133 57.3073 101.969 57.0703 102.891 57.0703C103.594 57.0703 104.172 57.1901 104.625 57.4297C105.078 57.6641 105.438 57.9479 105.703 58.2812C105.969 58.6094 106.174 58.9193 106.32 59.2109H106.438V53.2266H109.273V69.2266H106.492V67.3359H106.32C106.174 67.6276 105.964 67.9375 105.688 68.2656C105.411 68.5885 105.047 68.8646 104.594 69.0937C104.141 69.3229 103.57 69.4375 102.883 69.4375ZM103.672 67.1172C104.271 67.1172 104.781 66.9557 105.203 66.6328C105.625 66.3047 105.945 65.849 106.164 65.2656C106.383 64.6823 106.492 64.0026 106.492 63.2266C106.492 62.4505 106.383 61.776 106.164 61.2031C105.951 60.6302 105.633 60.1849 105.211 59.8672C104.794 59.5495 104.281 59.3906 103.672 59.3906C103.042 59.3906 102.516 59.5547 102.094 59.8828C101.672 60.2109 101.354 60.6641 101.141 61.2422C100.927 61.8203 100.82 62.4818 100.82 63.2266C100.82 63.9766 100.927 64.6458 101.141 65.2344C101.359 65.8177 101.68 66.2786 102.102 66.6172C102.529 66.9505 103.052 67.1172 103.672 67.1172ZM117.069 69.2266V53.2266H119.897V59.2109H120.014C120.16 58.9193 120.366 58.6094 120.632 58.2812C120.897 57.9479 121.257 57.6641 121.71 57.4297C122.163 57.1901 122.741 57.0703 123.444 57.0703C124.371 57.0703 125.207 57.3073 125.952 57.7812C126.702 58.25 127.296 58.9453 127.733 59.8672C128.176 60.7839 128.397 61.9089 128.397 63.2422C128.397 64.5599 128.181 65.6797 127.749 66.6016C127.317 67.5234 126.728 68.2266 125.983 68.7109C125.238 69.1953 124.395 69.4375 123.452 69.4375C122.764 69.4375 122.194 69.3229 121.741 69.0937C121.288 68.8646 120.923 68.5885 120.647 68.2656C120.376 67.9375 120.165 67.6276 120.014 67.3359H119.85V69.2266H117.069ZM119.843 63.2266C119.843 64.0026 119.952 64.6823 120.171 65.2656C120.395 65.849 120.715 66.3047 121.132 66.6328C121.554 66.9557 122.064 67.1172 122.663 67.1172C123.288 67.1172 123.811 66.9505 124.233 66.6172C124.655 66.2786 124.973 65.8177 125.186 65.2344C125.405 64.6458 125.514 63.9766 125.514 63.2266C125.514 62.4818 125.408 61.8203 125.194 61.2422C124.981 60.6641 124.663 60.2109 124.241 59.8828C123.819 59.5547 123.293 59.3906 122.663 59.3906C122.059 59.3906 121.546 59.5495 121.124 59.8672C120.702 60.1849 120.382 60.6302 120.163 61.2031C119.949 61.776 119.843 62.4505 119.843 63.2266ZM138.05 64.1797V57.2266H140.878V69.2266H138.136V67.0937H138.011C137.74 67.7656 137.295 68.3151 136.675 68.7422C136.06 69.1693 135.303 69.3828 134.402 69.3828C133.615 69.3828 132.92 69.2083 132.316 68.8594C131.717 68.5052 131.248 67.9922 130.909 67.3203C130.571 66.6432 130.402 65.8255 130.402 64.8672V57.2266H133.23V64.4297C133.23 65.1901 133.438 65.7943 133.855 66.2422C134.271 66.6901 134.818 66.9141 135.495 66.9141C135.912 66.9141 136.316 66.8125 136.706 66.6094C137.097 66.4062 137.417 66.1042 137.667 65.7031C137.922 65.2969 138.05 64.7891 138.05 64.1797ZM145.144 73.7266C144.759 73.7266 144.402 73.6953 144.074 73.6328C143.751 73.5755 143.493 73.5078 143.3 73.4297L143.957 71.2266C144.368 71.3464 144.735 71.4036 145.058 71.3984C145.381 71.3932 145.665 71.2917 145.91 71.0938C146.16 70.901 146.371 70.5781 146.543 70.125L146.785 69.4766L142.433 57.2266H145.433L148.199 66.2891H148.324L151.097 57.2266H154.105L149.3 70.6797C149.076 71.3151 148.78 71.8594 148.41 72.3125C148.04 72.7708 147.587 73.1198 147.05 73.3594C146.519 73.6042 145.884 73.7266 145.144 73.7266ZM155.662 69.2266V57.2266H158.49V69.2266H155.662ZM157.084 55.5234C156.636 55.5234 156.251 55.375 155.928 55.0781C155.605 54.776 155.443 54.4141 155.443 53.9922C155.443 53.5651 155.605 53.2031 155.928 52.9062C156.251 52.6042 156.636 52.4531 157.084 52.4531C157.537 52.4531 157.923 52.6042 158.24 52.9062C158.563 53.2031 158.725 53.5651 158.725 53.9922C158.725 54.4141 158.563 54.776 158.24 55.0781C157.923 55.375 157.537 55.5234 157.084 55.5234ZM163.827 62.1953V69.2266H160.998V57.2266H163.702V59.2656H163.842C164.118 58.5937 164.558 58.0599 165.163 57.6641C165.772 57.2682 166.524 57.0703 167.42 57.0703C168.248 57.0703 168.97 57.2474 169.584 57.6016C170.204 57.9557 170.683 58.4687 171.022 59.1406C171.366 59.8125 171.535 60.6276 171.53 61.5859V69.2266H168.702V62.0234C168.702 61.2214 168.493 60.5937 168.077 60.1406C167.665 59.6875 167.095 59.4609 166.366 59.4609C165.871 59.4609 165.431 59.5703 165.045 59.7891C164.665 60.0026 164.366 60.3125 164.147 60.7188C163.933 61.125 163.827 61.6172 163.827 62.1953ZM179.223 73.9766C178.208 73.9766 177.335 73.8385 176.606 73.5625C175.877 73.2917 175.291 72.9271 174.848 72.4687C174.406 72.0104 174.098 71.5026 173.927 70.9453L176.473 70.3281C176.588 70.5625 176.755 70.7943 176.973 71.0234C177.192 71.2578 177.486 71.4505 177.856 71.6016C178.231 71.7578 178.703 71.8359 179.27 71.8359C180.072 71.8359 180.736 71.6406 181.262 71.25C181.789 70.8646 182.052 70.2292 182.052 69.3438V67.0703H181.911C181.765 67.362 181.552 67.6615 181.27 67.9687C180.994 68.276 180.627 68.5339 180.169 68.7422C179.716 68.9505 179.145 69.0547 178.458 69.0547C177.536 69.0547 176.7 68.8385 175.95 68.4062C175.205 67.9687 174.611 67.3177 174.169 66.4531C173.731 65.5833 173.512 64.4948 173.512 63.1875C173.512 61.8698 173.731 60.7578 174.169 59.8516C174.611 58.9401 175.208 58.25 175.958 57.7812C176.708 57.3073 177.544 57.0703 178.466 57.0703C179.169 57.0703 179.747 57.1901 180.2 57.4297C180.658 57.6641 181.023 57.9479 181.294 58.2812C181.565 58.6094 181.77 58.9193 181.911 59.2109H182.067V57.2266H184.856V69.4219C184.856 70.4479 184.611 71.2969 184.122 71.9688C183.632 72.6406 182.963 73.1432 182.114 73.4766C181.265 73.8099 180.302 73.9766 179.223 73.9766ZM179.247 66.8359C179.846 66.8359 180.356 66.6901 180.778 66.3984C181.2 66.1068 181.52 65.6875 181.739 65.1406C181.958 64.5937 182.067 63.9375 182.067 63.1719C182.067 62.4167 181.958 61.7552 181.739 61.1875C181.526 60.6198 181.208 60.1797 180.786 59.8672C180.369 59.5495 179.856 59.3906 179.247 59.3906C178.617 59.3906 178.091 59.5547 177.669 59.8828C177.247 60.2109 176.929 60.6615 176.716 61.2344C176.502 61.8021 176.395 62.4479 176.395 63.1719C176.395 63.9063 176.502 64.5495 176.716 65.1016C176.934 65.6484 177.255 66.0755 177.677 66.3828C178.104 66.6849 178.627 66.8359 179.247 66.8359ZM6.76562 95.4609C5.5625 95.4609 4.52344 95.2109 3.64844 94.7109C2.77865 94.2057 2.10938 93.4922 1.64063 92.5703C1.17188 91.6432 0.9375 90.5521 0.9375 89.2969C0.9375 88.0625 1.17188 86.9792 1.64063 86.0469C2.11458 85.1094 2.77604 84.3802 3.625 83.8594C4.47396 83.3333 5.47135 83.0703 6.61719 83.0703C7.35677 83.0703 8.05469 83.1901 8.71094 83.4297C9.3724 83.6641 9.95573 84.0286 10.4609 84.5234C10.9714 85.0182 11.3724 85.6484 11.6641 86.4141C11.9557 87.1745 12.1016 88.0807 12.1016 89.1328V90H2.26563V88.0938H9.39063C9.38542 87.5521 9.26823 87.0703 9.03906 86.6484C8.8099 86.2214 8.48958 85.8854 8.07812 85.6406C7.67188 85.3958 7.19792 85.2734 6.65625 85.2734C6.07813 85.2734 5.57031 85.4141 5.13281 85.6953C4.69531 85.9714 4.35417 86.3359 4.10938 86.7891C3.86979 87.237 3.7474 87.7292 3.74219 88.2656V89.9297C3.74219 90.6276 3.86979 91.2266 4.125 91.7266C4.38021 92.2214 4.73698 92.6016 5.19531 92.8672C5.65365 93.1276 6.1901 93.2578 6.80469 93.2578C7.21615 93.2578 7.58854 93.2005 7.92188 93.0859C8.25521 92.9661 8.54427 92.7917 8.78906 92.5625C9.03385 92.3333 9.21875 92.0495 9.34375 91.7109L11.9844 92.0078C11.8177 92.7057 11.5 93.3151 11.0313 93.8359C10.5677 94.3516 9.97396 94.7526 9.25 95.0391C8.52604 95.3203 7.69792 95.4609 6.76562 95.4609ZM16.1488 83.2266L18.5707 87.6562L21.0316 83.2266H24.0238L20.4066 89.2266L24.0863 95.2266H21.1098L18.5707 90.9062L16.0551 95.2266H13.0551L16.7113 89.2266L13.1488 83.2266H16.1488ZM25.8113 99.7266V83.2266H28.5926V85.2109H28.7566C28.9025 84.9193 29.1082 84.6094 29.3738 84.2812C29.6395 83.9479 29.9988 83.6641 30.452 83.4297C30.9051 83.1901 31.4832 83.0703 32.1863 83.0703C33.1134 83.0703 33.9493 83.3073 34.6941 83.7812C35.4441 84.25 36.0379 84.9453 36.4754 85.8672C36.9181 86.7839 37.1395 87.9089 37.1395 89.2422C37.1395 90.5599 36.9233 91.6797 36.491 92.6016C36.0587 93.5234 35.4702 94.2266 34.7254 94.7109C33.9806 95.1953 33.1369 95.4375 32.1941 95.4375C31.5066 95.4375 30.9363 95.3229 30.4832 95.0937C30.0301 94.8646 29.6655 94.5885 29.3895 94.2656C29.1186 93.9375 28.9077 93.6276 28.7566 93.3359H28.6395V99.7266H25.8113ZM28.5848 89.2266C28.5848 90.0026 28.6941 90.6823 28.9129 91.2656C29.1368 91.849 29.4572 92.3047 29.8738 92.6328C30.2957 92.9557 30.8061 93.1172 31.4051 93.1172C32.0301 93.1172 32.5535 92.9505 32.9754 92.6172C33.3973 92.2786 33.715 91.8177 33.9285 91.2344C34.1473 90.6458 34.2566 89.9766 34.2566 89.2266C34.2566 88.4818 34.1499 87.8203 33.9363 87.2422C33.7228 86.6641 33.4051 86.2109 32.9832 85.8828C32.5613 85.5547 32.0353 85.3906 31.4051 85.3906C30.8009 85.3906 30.2879 85.5495 29.866 85.8672C29.4441 86.1849 29.1238 86.6302 28.9051 87.2031C28.6915 87.776 28.5848 88.4505 28.5848 89.2266ZM44.4738 95.4609C43.2707 95.4609 42.2316 95.2109 41.3566 94.7109C40.4868 94.2057 39.8176 93.4922 39.3488 92.5703C38.8801 91.6432 38.6457 90.5521 38.6457 89.2969C38.6457 88.0625 38.8801 86.9792 39.3488 86.0469C39.8228 85.1094 40.4842 84.3802 41.3332 83.8594C42.1822 83.3333 43.1796 83.0703 44.3254 83.0703C45.065 83.0703 45.7629 83.1901 46.4191 83.4297C47.0806 83.6641 47.6639 84.0286 48.1691 84.5234C48.6796 85.0182 49.0806 85.6484 49.3723 86.4141C49.6639 87.1745 49.8098 88.0807 49.8098 89.1328V90H39.9738V88.0938H47.0988C47.0936 87.5521 46.9764 87.0703 46.7473 86.6484C46.5181 86.2214 46.1978 85.8854 45.7863 85.6406C45.3801 85.3958 44.9061 85.2734 44.3645 85.2734C43.7863 85.2734 43.2785 85.4141 42.841 85.6953C42.4035 85.9714 42.0624 86.3359 41.8176 86.7891C41.578 87.237 41.4556 87.7292 41.4504 88.2656V89.9297C41.4504 90.6276 41.578 91.2266 41.8332 91.7266C42.0884 92.2214 42.4452 92.6016 42.9035 92.8672C43.3618 93.1276 43.8983 93.2578 44.5129 93.2578C44.9243 93.2578 45.2967 93.2005 45.6301 93.0859C45.9634 92.9661 46.2525 92.7917 46.4973 92.5625C46.7421 92.3333 46.927 92.0495 47.052 91.7109L49.6926 92.0078C49.5259 92.7057 49.2082 93.3151 48.7395 93.8359C48.2759 94.3516 47.6822 94.7526 46.9582 95.0391C46.2342 95.3203 45.4061 95.4609 44.4738 95.4609ZM51.8023 95.2266V83.2266H54.5445V85.2266H54.6695C54.8883 84.5339 55.2633 84 55.7945 83.625C56.331 83.2448 56.943 83.0547 57.6305 83.0547C57.7867 83.0547 57.9612 83.0625 58.1539 83.0781C58.3518 83.0885 58.5159 83.1068 58.6461 83.1328V85.7344C58.5263 85.6927 58.3362 85.6562 58.0758 85.625C57.8206 85.5885 57.5732 85.5703 57.3336 85.5703C56.818 85.5703 56.3544 85.6823 55.943 85.9062C55.5367 86.125 55.2164 86.4297 54.982 86.8203C54.7477 87.2109 54.6305 87.6615 54.6305 88.1719V95.2266H51.8023ZM60.125 95.2266V83.2266H62.9531V95.2266H60.125ZM61.5469 81.5234C61.099 81.5234 60.7135 81.375 60.3906 81.0781C60.0677 80.776 59.9063 80.4141 59.9063 79.9922C59.9063 79.5651 60.0677 79.2031 60.3906 78.9062C60.7135 78.6042 61.099 78.4531 61.5469 78.4531C62 78.4531 62.3854 78.6042 62.7031 78.9062C63.026 79.2031 63.1875 79.5651 63.1875 79.9922C63.1875 80.4141 63.026 80.776 62.7031 81.0781C62.3854 81.375 62 81.5234 61.5469 81.5234ZM70.7738 95.4609C69.5707 95.4609 68.5316 95.2109 67.6566 94.7109C66.7868 94.2057 66.1176 93.4922 65.6488 92.5703C65.1801 91.6432 64.9457 90.5521 64.9457 89.2969C64.9457 88.0625 65.1801 86.9792 65.6488 86.0469C66.1228 85.1094 66.7842 84.3802 67.6332 83.8594C68.4822 83.3333 69.4796 83.0703 70.6254 83.0703C71.365 83.0703 72.0629 83.1901 72.7191 83.4297C73.3806 83.6641 73.9639 84.0286 74.4691 84.5234C74.9796 85.0182 75.3806 85.6484 75.6723 86.4141C75.9639 87.1745 76.1098 88.0807 76.1098 89.1328V90H66.2738V88.0938H73.3988C73.3936 87.5521 73.2764 87.0703 73.0473 86.6484C72.8181 86.2214 72.4978 85.8854 72.0863 85.6406C71.6801 85.3958 71.2061 85.2734 70.6645 85.2734C70.0863 85.2734 69.5785 85.4141 69.141 85.6953C68.7035 85.9714 68.3624 86.3359 68.1176 86.7891C67.878 87.237 67.7556 87.7292 67.7504 88.2656V89.9297C67.7504 90.6276 67.878 91.2266 68.1332 91.7266C68.3884 92.2214 68.7452 92.6016 69.2035 92.8672C69.6618 93.1276 70.1983 93.2578 70.8129 93.2578C71.2243 93.2578 71.5967 93.2005 71.9301 93.0859C72.2634 92.9661 72.5525 92.7917 72.7973 92.5625C73.0421 92.3333 73.227 92.0495 73.352 91.7109L75.9926 92.0078C75.8259 92.7057 75.5082 93.3151 75.0395 93.8359C74.5759 94.3516 73.9822 94.7526 73.2582 95.0391C72.5342 95.3203 71.7061 95.4609 70.7738 95.4609ZM80.9305 88.1953V95.2266H78.1023V83.2266H80.8055V85.2656H80.9461C81.2221 84.5937 81.6622 84.0599 82.2664 83.6641C82.8758 83.2682 83.6284 83.0703 84.5242 83.0703C85.3523 83.0703 86.0737 83.2474 86.6883 83.6016C87.3081 83.9557 87.7872 84.4687 88.1258 85.1406C88.4695 85.8125 88.6388 86.6276 88.6336 87.5859V95.2266H85.8055V88.0234C85.8055 87.2214 85.5971 86.5937 85.1805 86.1406C84.769 85.6875 84.1987 85.4609 83.4695 85.4609C82.9747 85.4609 82.5346 85.5703 82.1492 85.7891C81.769 86.0026 81.4695 86.3125 81.2508 86.7188C81.0372 87.125 80.9305 87.6172 80.9305 88.1953ZM96.343 95.4609C95.1451 95.4609 94.1164 95.1979 93.257 94.6719C92.4029 94.1458 91.744 93.4193 91.2805 92.4922C90.8221 91.5599 90.593 90.487 90.593 89.2734C90.593 88.0547 90.8273 86.9792 91.2961 86.0469C91.7648 85.1094 92.4263 84.3802 93.2805 83.8594C94.1398 83.3333 95.1555 83.0703 96.3273 83.0703C97.3013 83.0703 98.1633 83.25 98.9133 83.6094C99.6685 83.9635 100.27 84.4661 100.718 85.1172C101.166 85.763 101.421 86.5182 101.484 87.3828H98.7805C98.6711 86.8047 98.4107 86.3229 97.9992 85.9375C97.593 85.5469 97.0487 85.3516 96.3664 85.3516C95.7883 85.3516 95.2805 85.5078 94.843 85.8203C94.4055 86.1276 94.0643 86.5703 93.8195 87.1484C93.58 87.7266 93.4602 88.4193 93.4602 89.2266C93.4602 90.0443 93.58 90.7474 93.8195 91.3359C94.0591 91.9193 94.3951 92.3698 94.8273 92.6875C95.2648 93 95.7779 93.1562 96.3664 93.1562C96.7831 93.1562 97.1555 93.0781 97.4836 92.9219C97.8169 92.7604 98.0956 92.5286 98.3195 92.2266C98.5435 91.9245 98.6971 91.5573 98.7805 91.125H101.484C101.416 91.974 101.166 92.7266 100.734 93.3828C100.301 94.0339 99.7128 94.5443 98.968 94.9141C98.2232 95.2786 97.3482 95.4609 96.343 95.4609ZM108.718 95.4609C107.515 95.4609 106.476 95.2109 105.601 94.7109C104.731 94.2057 104.062 93.4922 103.593 92.5703C103.125 91.6432 102.89 90.5521 102.89 89.2969C102.89 88.0625 103.125 86.9792 103.593 86.0469C104.067 85.1094 104.729 84.3802 105.578 83.8594C106.427 83.3333 107.424 83.0703 108.57 83.0703C109.31 83.0703 110.007 83.1901 110.664 83.4297C111.325 83.6641 111.908 84.0286 112.414 84.5234C112.924 85.0182 113.325 85.6484 113.617 86.4141C113.908 87.1745 114.054 88.0807 114.054 89.1328V90H104.218V88.0938H111.343C111.338 87.5521 111.221 87.0703 110.992 86.6484C110.763 86.2214 110.442 85.8854 110.031 85.6406C109.625 85.3958 109.151 85.2734 108.609 85.2734C108.031 85.2734 107.523 85.4141 107.086 85.6953C106.648 85.9714 106.307 86.3359 106.062 86.7891C105.823 87.237 105.7 87.7292 105.695 88.2656V89.9297C105.695 90.6276 105.823 91.2266 106.078 91.7266C106.333 92.2214 106.69 92.6016 107.148 92.8672C107.606 93.1276 108.143 93.2578 108.757 93.2578C109.169 93.2578 109.541 93.2005 109.875 93.0859C110.208 92.9661 110.497 92.7917 110.742 92.5625C110.987 92.3333 111.171 92.0495 111.296 91.7109L113.937 92.0078C113.77 92.7057 113.453 93.3151 112.984 93.8359C112.52 94.3516 111.927 94.7526 111.203 95.0391C110.479 95.3203 109.651 95.4609 108.718 95.4609Z" fill="#2C3B4E"/>
<path d="M82.9697 12.6809C74.863 13.2308 65.8149 14.9049 58.1133 17.5082C52.3885 19.4434 42.6188 23.4324 38.689 29.0783C35.2217 34.0596 37.4093 39.2426 40.4555 43.6606C46.3583 52.2215 60.1854 52.2221 68.5699 52.4855C76.3551 52.7301 84.1719 51.8999 91.9505 51.6847C99.2766 51.4819 107.385 51.0254 113.905 47.0541C121.146 42.6444 134.186 35.5092 133.43 24.3525C132.385 8.95907 111.391 5.4732 101.219 4.41892C91.2049 3.38096 80.6991 2.83097 70.7541 4.47885C69.9273 4.61585 62.7849 5.35575 64.3344 6.09228" stroke="white" stroke-width="3" stroke-linecap="round"/>
</svg>
