<svg width="539" height="520" viewBox="0 0 539 520" fill="none" xmlns="http://www.w3.org/2000/svg">
<rect y="0.0610352" width="539" height="519.939" rx="8" fill="#F3F1FD"/>
<rect x="68.832" y="130.83" width="402.397" height="1.05894" fill="white"/>
<rect x="68.832" y="453.806" width="402.397" height="1.05894" fill="white"/>
<rect x="68.832" y="195.425" width="402.397" height="1.05894" fill="white"/>
<rect x="68.832" y="260.02" width="402.397" height="3.17682" fill="white"/>
<rect x="68.832" y="324.616" width="402.397" height="1.05894" fill="white"/>
<rect x="68.832" y="66.2344" width="402.397" height="1.05894" fill="white"/>
<rect x="68.832" y="389.211" width="402.397" height="1.05894" fill="white"/>
<rect x="168.372" y="66.7744" width="1.05894" height="387.572" fill="white"/>
<rect x="369.57" y="66.7744" width="1.05894" height="387.572" fill="white"/>
<rect x="268.971" y="66.7744" width="3.17682" height="387.572" fill="white"/>
<rect x="470.169" y="66.7744" width="1.05894" height="387.572" fill="white"/>
<rect x="67.7725" y="66.7744" width="1.05894" height="387.572" fill="white"/>
<path fill-rule="evenodd" clip-rule="evenodd" d="M321.918 206.554C331.275 206.554 338.861 198.968 338.861 189.611C338.861 180.254 331.275 172.668 321.918 172.668C312.56 172.668 304.975 180.254 304.975 189.611C304.975 198.968 312.56 206.554 321.918 206.554Z" fill="#E7DFD9"/>
<path fill-rule="evenodd" clip-rule="evenodd" d="M301.798 251.03C311.155 251.03 318.741 243.444 318.741 234.087C318.741 224.729 311.155 217.144 301.798 217.144C292.44 217.144 284.854 224.729 284.854 234.087C284.854 243.444 292.44 251.03 301.798 251.03Z" fill="#E7DFD9"/>
<path fill-rule="evenodd" clip-rule="evenodd" d="M238.261 325.155C247.619 325.155 255.204 317.569 255.204 308.212C255.204 298.855 247.619 291.269 238.261 291.269C228.904 291.269 221.318 298.855 221.318 308.212C221.318 317.569 228.904 325.155 238.261 325.155Z" fill="#E7DFD9"/>
<path fill-rule="evenodd" clip-rule="evenodd" d="M186.374 308.212C195.731 308.212 203.317 300.627 203.317 291.269C203.317 281.912 195.731 274.326 186.374 274.326C177.016 274.326 169.431 281.912 169.431 291.269C169.431 300.627 177.016 308.212 186.374 308.212Z" fill="#E7DFD9"/>
<path fill-rule="evenodd" clip-rule="evenodd" d="M204.376 351.629C213.733 351.629 221.319 344.043 221.319 334.686C221.319 325.328 213.733 317.743 204.376 317.743C195.018 317.743 187.433 325.328 187.433 334.686C187.433 344.043 195.018 351.629 204.376 351.629Z" fill="#E7DFD9"/>
<path fill-rule="evenodd" clip-rule="evenodd" d="M202.257 432.108C211.615 432.108 219.201 424.523 219.201 415.165C219.201 405.808 211.615 398.222 202.257 398.222C192.9 398.222 185.314 405.808 185.314 415.165C185.314 424.523 192.9 432.108 202.257 432.108Z" fill="#E7DFD9"/>
<path fill-rule="evenodd" clip-rule="evenodd" d="M112.248 405.635C121.605 405.635 129.191 398.049 129.191 388.692C129.191 379.334 121.605 371.749 112.248 371.749C102.89 371.749 95.3047 379.334 95.3047 388.692C95.3047 398.049 102.89 405.635 112.248 405.635Z" fill="#E7DFD9"/>
<path fill-rule="evenodd" clip-rule="evenodd" d="M406.632 223.497C415.99 223.497 423.576 215.911 423.576 206.554C423.576 197.196 415.99 189.611 406.632 189.611C397.275 189.611 389.689 197.196 389.689 206.554C389.689 215.911 397.275 223.497 406.632 223.497Z" fill="#E7DFD9"/>
<path fill-rule="evenodd" clip-rule="evenodd" d="M400.196 37.3403L395.356 36.9203L393.466 32.4703C393.126 31.6603 391.966 31.6603 391.626 32.4703L389.736 36.9303L384.906 37.3403C384.026 37.4103 383.666 38.5103 384.336 39.0903L388.006 42.2703L386.906 46.9903C386.706 47.8503 387.636 48.5303 388.396 48.0703L392.546 45.5703L396.696 48.0803C397.456 48.5403 398.386 47.8603 398.186 47.0003L397.086 42.2703L400.756 39.0903C401.426 38.5103 401.076 37.4103 400.196 37.3403ZM392.546 43.7003L388.786 45.9703L389.786 41.6903L386.466 38.8103L390.846 38.4303L392.546 34.4003L394.256 38.4403L398.636 38.8203L395.316 41.7003L396.316 45.9803L392.546 43.7003Z" fill="#2C3B4E"/>
<path d="M406.183 45.8003V34.1639H408.291V44.0332H413.416V45.8003H406.183ZM418.618 45.9707C417.743 45.9707 416.987 45.7889 416.351 45.4253C415.718 45.0579 415.232 44.5389 414.891 43.8685C414.55 43.1942 414.379 42.4007 414.379 41.4878C414.379 40.5901 414.55 39.8022 414.891 39.1242C415.235 38.4423 415.716 37.912 416.334 37.5332C416.951 37.1507 417.677 36.9594 418.51 36.9594C419.048 36.9594 419.555 37.0465 420.033 37.2207C420.514 37.3912 420.938 37.6564 421.305 38.0162C421.677 38.3761 421.968 38.8344 422.18 39.3912C422.393 39.9442 422.499 40.6033 422.499 41.3685V41.9992H415.345V40.6128H420.527C420.523 40.2189 420.438 39.8685 420.271 39.5617C420.105 39.2511 419.872 39.0067 419.572 38.8287C419.277 38.6507 418.932 38.5617 418.538 38.5617C418.118 38.5617 417.749 38.6639 417.43 38.8685C417.112 39.0692 416.864 39.3344 416.686 39.6639C416.512 39.9897 416.423 40.3476 416.419 40.7378V41.948C416.419 42.4556 416.512 42.8912 416.697 43.2548C416.883 43.6147 417.143 43.8912 417.476 44.0844C417.809 44.2738 418.199 44.3685 418.646 44.3685C418.946 44.3685 419.216 44.3268 419.459 44.2435C419.701 44.1564 419.911 44.0295 420.09 43.8628C420.268 43.6961 420.402 43.4897 420.493 43.2435L422.413 43.4594C422.292 43.967 422.061 44.4101 421.72 44.7889C421.383 45.1639 420.951 45.4556 420.425 45.6639C419.898 45.8685 419.296 45.9707 418.618 45.9707ZM426.35 45.9764C425.797 45.9764 425.299 45.8779 424.856 45.681C424.416 45.4802 424.068 45.1848 423.81 44.7946C423.556 44.4045 423.43 43.9234 423.43 43.3514C423.43 42.859 423.52 42.4518 423.702 42.1298C423.884 41.8079 424.132 41.5503 424.447 41.3571C424.761 41.1639 425.115 41.0181 425.509 40.9196C425.907 40.8173 426.318 40.7435 426.742 40.698C427.253 40.645 427.668 40.5976 427.986 40.556C428.305 40.5105 428.536 40.4423 428.68 40.3514C428.827 40.2567 428.901 40.1109 428.901 39.9139V39.8798C428.901 39.4518 428.774 39.1204 428.52 38.8855C428.267 38.6507 427.901 38.5332 427.424 38.5332C426.92 38.5332 426.52 38.6431 426.225 38.8628C425.933 39.0825 425.736 39.342 425.634 39.6412L423.714 39.3685C423.865 38.8382 424.115 38.395 424.464 38.0389C424.812 37.6791 425.238 37.4101 425.742 37.2321C426.246 37.0503 426.803 36.9594 427.413 36.9594C427.833 36.9594 428.252 37.0086 428.668 37.1071C429.085 37.2056 429.466 37.3685 429.81 37.5957C430.155 37.8192 430.431 38.1242 430.64 38.5105C430.852 38.8969 430.958 39.3798 430.958 39.9594V45.8003H428.981V44.6014H428.913C428.788 44.8439 428.611 45.0711 428.384 45.2832C428.161 45.4916 427.878 45.6601 427.538 45.7889C427.2 45.9139 426.805 45.9764 426.35 45.9764ZM426.884 44.4651C427.297 44.4651 427.655 44.3836 427.958 44.2207C428.261 44.0541 428.494 43.8344 428.657 43.5617C428.824 43.2889 428.907 42.9916 428.907 42.6696V41.6412C428.842 41.6942 428.733 41.7435 428.577 41.7889C428.426 41.8344 428.255 41.8742 428.066 41.9082C427.877 41.9423 427.689 41.9726 427.503 41.9992C427.318 42.0257 427.157 42.0484 427.02 42.0673C426.714 42.109 426.439 42.1772 426.197 42.2719C425.954 42.3666 425.763 42.4992 425.623 42.6696C425.483 42.8363 425.413 43.0522 425.413 43.3173C425.413 43.6961 425.551 43.9821 425.827 44.1753C426.104 44.3685 426.456 44.4651 426.884 44.4651ZM435.865 45.9537C435.179 45.9537 434.566 45.7776 434.024 45.4253C433.482 45.073 433.054 44.5617 432.74 43.8912C432.425 43.2207 432.268 42.4064 432.268 41.448C432.268 40.4783 432.427 39.6601 432.745 38.9935C433.067 38.323 433.501 37.8173 434.047 37.4764C434.592 37.1317 435.2 36.9594 435.87 36.9594C436.382 36.9594 436.802 37.0465 437.132 37.2207C437.461 37.3912 437.723 37.5976 437.916 37.8401C438.109 38.0787 438.259 38.3041 438.365 38.5162H438.45V34.1639H440.513V45.8003H438.49V44.4253H438.365C438.259 44.6374 438.105 44.8628 437.905 45.1014C437.704 45.3363 437.439 45.537 437.109 45.7037C436.78 45.8704 436.365 45.9537 435.865 45.9537ZM436.439 44.2662C436.874 44.2662 437.245 44.1488 437.552 43.9139C437.859 43.6753 438.092 43.3439 438.251 42.9196C438.41 42.4954 438.49 42.0011 438.49 41.4367C438.49 40.8723 438.41 40.3817 438.251 39.9651C438.096 39.5484 437.865 39.2245 437.558 38.9935C437.255 38.7624 436.882 38.6469 436.439 38.6469C435.98 38.6469 435.598 38.7662 435.291 39.0048C434.984 39.2435 434.753 39.573 434.598 39.9935C434.442 40.4139 434.365 40.895 434.365 41.4367C434.365 41.9821 434.442 42.4689 434.598 42.8969C434.757 43.3211 434.99 43.6564 435.297 43.9026C435.607 44.145 435.988 44.2662 436.439 44.2662ZM446.168 45.9707C445.293 45.9707 444.537 45.7889 443.901 45.4253C443.268 45.0579 442.782 44.5389 442.441 43.8685C442.1 43.1942 441.929 42.4007 441.929 41.4878C441.929 40.5901 442.1 39.8022 442.441 39.1242C442.785 38.4423 443.266 37.912 443.884 37.5332C444.501 37.1507 445.227 36.9594 446.06 36.9594C446.598 36.9594 447.105 37.0465 447.583 37.2207C448.064 37.3912 448.488 37.6564 448.855 38.0162C449.227 38.3761 449.518 38.8344 449.73 39.3912C449.943 39.9442 450.049 40.6033 450.049 41.3685V41.9992H442.895V40.6128H448.077C448.073 40.2189 447.988 39.8685 447.821 39.5617C447.655 39.2511 447.422 39.0067 447.122 38.8287C446.827 38.6507 446.482 38.5617 446.088 38.5617C445.668 38.5617 445.299 38.6639 444.98 38.8685C444.662 39.0692 444.414 39.3344 444.236 39.6639C444.062 39.9897 443.973 40.3476 443.969 40.7378V41.948C443.969 42.4556 444.062 42.8912 444.247 43.2548C444.433 43.6147 444.693 43.8912 445.026 44.0844C445.359 44.2738 445.749 44.3685 446.196 44.3685C446.496 44.3685 446.766 44.3268 447.009 44.2435C447.251 44.1564 447.461 44.0295 447.64 43.8628C447.818 43.6961 447.952 43.4897 448.043 43.2435L449.963 43.4594C449.842 43.967 449.611 44.4101 449.27 44.7889C448.933 45.1639 448.501 45.4556 447.975 45.6639C447.448 45.8685 446.846 45.9707 446.168 45.9707ZM451.389 45.8003V37.073H453.383V38.5276H453.474C453.633 38.0238 453.906 37.6355 454.292 37.3628C454.682 37.0863 455.127 36.948 455.627 36.948C455.741 36.948 455.868 36.9537 456.008 36.9651C456.152 36.9726 456.271 36.9859 456.366 37.0048V38.8969C456.279 38.8666 456.141 38.8401 455.951 38.8173C455.766 38.7908 455.586 38.7776 455.411 38.7776C455.036 38.7776 454.699 38.859 454.4 39.0219C454.105 39.181 453.872 39.4026 453.701 39.6867C453.531 39.9707 453.445 40.2984 453.445 40.6696V45.8003H451.389ZM464.23 39.3798L462.355 39.5844C462.302 39.395 462.209 39.217 462.077 39.0503C461.948 38.8836 461.774 38.7492 461.554 38.6469C461.334 38.5446 461.065 38.4935 460.747 38.4935C460.319 38.4935 459.959 38.5863 459.668 38.7719C459.38 38.9575 459.238 39.198 459.241 39.4935C459.238 39.7473 459.331 39.9537 459.52 40.1128C459.713 40.2719 460.031 40.4026 460.474 40.5048L461.963 40.823C462.789 41.0011 463.402 41.2832 463.804 41.6696C464.209 42.056 464.414 42.5617 464.418 43.1867C464.414 43.7359 464.253 44.2207 463.935 44.6412C463.62 45.0579 463.183 45.3836 462.622 45.6185C462.062 45.8533 461.418 45.9707 460.69 45.9707C459.622 45.9707 458.762 45.7473 458.111 45.3003C457.459 44.8495 457.071 44.2226 456.946 43.4196L458.952 43.2264C459.043 43.6204 459.236 43.9177 459.531 44.1185C459.827 44.3192 460.211 44.4196 460.685 44.4196C461.173 44.4196 461.565 44.3192 461.861 44.1185C462.16 43.9177 462.31 43.6696 462.31 43.3742C462.31 43.1242 462.213 42.9177 462.02 42.7548C461.831 42.592 461.535 42.467 461.134 42.3798L459.645 42.0673C458.808 41.8931 458.188 41.5995 457.787 41.1867C457.385 40.77 457.187 40.2435 457.19 39.6071C457.187 39.0692 457.332 38.6033 457.628 38.2094C457.927 37.8117 458.342 37.5048 458.872 37.2889C459.406 37.0692 460.022 36.9594 460.719 36.9594C461.741 36.9594 462.546 37.1772 463.134 37.6128C463.724 38.0484 464.09 38.6374 464.23 39.3798Z" fill="#18214D"/>
<path d="M392.4 115.249L396.443 109.487C396.985 108.715 397.198 107.759 397.035 106.83C396.872 105.9 396.347 105.074 395.575 104.532C394.802 103.99 393.846 103.777 392.917 103.94C391.988 104.103 391.161 104.629 390.619 105.401L387.472 109.886C382.299 105.619 375.7 103.475 369.007 103.885C362.315 104.296 356.027 107.23 351.414 112.097C346.802 116.963 344.207 123.398 344.155 130.104C344.103 136.809 346.597 143.284 351.134 148.221C355.671 153.158 361.912 156.19 368.598 156.704C375.283 157.219 381.915 155.177 387.153 150.991C392.391 146.806 395.847 140.788 396.82 134.154C397.794 127.52 396.215 120.764 392.4 115.249Z" fill="#FF7900"/>
<path d="M361.047 125.416C360.381 124.748 359.476 124.372 358.533 124.371C357.589 124.37 356.684 124.744 356.016 125.41C355.349 126.076 354.973 126.98 354.972 127.924C354.971 128.867 355.344 129.772 356.011 130.44L368.123 142.581C368.453 142.912 368.846 143.175 369.278 143.354C369.71 143.534 370.173 143.626 370.641 143.626C370.747 143.626 370.845 143.626 370.948 143.614C371.466 143.569 371.967 143.411 372.417 143.152C372.868 142.892 373.256 142.537 373.554 142.112L392.403 115.249C391.014 113.244 389.355 111.439 387.475 109.885L370.165 134.559L361.047 125.416Z" fill="white"/>
<path d="M379.755 481.053V472.326H381.072V476.119H385.422V472.326H386.743V481.053H385.422V477.248H381.072V481.053H379.755ZM388.459 481.053V474.508H389.733V481.053H388.459ZM389.102 473.498C388.881 473.498 388.69 473.424 388.531 473.276C388.375 473.126 388.297 472.947 388.297 472.739C388.297 472.529 388.375 472.35 388.531 472.202C388.69 472.052 388.881 471.977 389.102 471.977C389.324 471.977 389.513 472.052 389.669 472.202C389.828 472.35 389.908 472.529 389.908 472.739C389.908 472.947 389.828 473.126 389.669 473.276C389.513 473.424 389.324 473.498 389.102 473.498ZM394.091 483.644C393.571 483.644 393.124 483.576 392.749 483.44C392.377 483.303 392.073 483.123 391.837 482.898C391.601 482.674 391.425 482.428 391.309 482.161L392.404 481.709C392.481 481.834 392.583 481.967 392.711 482.106C392.841 482.248 393.017 482.369 393.239 482.468C393.463 482.567 393.752 482.617 394.104 482.617C394.587 482.617 394.986 482.499 395.302 482.263C395.617 482.03 395.775 481.658 395.775 481.147V479.86H395.694C395.617 479.999 395.506 480.154 395.361 480.325C395.219 480.495 395.023 480.643 394.773 480.768C394.523 480.893 394.198 480.955 393.797 480.955C393.28 480.955 392.814 480.834 392.4 480.593C391.988 480.349 391.661 479.989 391.419 479.515C391.181 479.038 391.061 478.451 391.061 477.755C391.061 477.059 391.179 476.462 391.415 475.965C391.654 475.468 391.981 475.087 392.395 474.823C392.81 474.556 393.28 474.423 393.806 474.423C394.212 474.423 394.54 474.491 394.79 474.627C395.04 474.761 395.235 474.917 395.374 475.096C395.516 475.275 395.625 475.432 395.702 475.569H395.796V474.508H397.044V481.198C397.044 481.761 396.914 482.222 396.652 482.583C396.391 482.944 396.037 483.211 395.591 483.384C395.148 483.557 394.648 483.644 394.091 483.644ZM394.079 479.898C394.445 479.898 394.755 479.813 395.008 479.643C395.263 479.469 395.456 479.222 395.587 478.901C395.721 478.577 395.787 478.19 395.787 477.738C395.787 477.298 395.722 476.91 395.591 476.575C395.461 476.239 395.269 475.978 395.016 475.79C394.763 475.6 394.451 475.505 394.079 475.505C393.695 475.505 393.375 475.604 393.12 475.803C392.864 475.999 392.671 476.266 392.54 476.604C392.412 476.942 392.348 477.32 392.348 477.738C392.348 478.167 392.414 478.543 392.544 478.867C392.675 479.191 392.868 479.444 393.124 479.626C393.383 479.807 393.701 479.898 394.079 479.898ZM399.927 477.167V481.053H398.653V472.326H399.91V475.573H399.991C400.145 475.221 400.379 474.941 400.694 474.734C401.01 474.526 401.422 474.423 401.93 474.423C402.379 474.423 402.771 474.515 403.106 474.7C403.444 474.884 403.706 475.16 403.89 475.526C404.078 475.89 404.172 476.344 404.172 476.89V481.053H402.898V477.043C402.898 476.563 402.774 476.191 402.527 475.927C402.28 475.66 401.936 475.526 401.496 475.526C401.194 475.526 400.925 475.59 400.686 475.718C400.45 475.846 400.264 476.033 400.128 476.28C399.994 476.525 399.927 476.82 399.927 477.167ZM408.848 483.508V474.508H410.092V475.569H410.199C410.272 475.432 410.379 475.275 410.518 475.096C410.657 474.917 410.851 474.761 411.098 474.627C411.345 474.491 411.672 474.423 412.078 474.423C412.606 474.423 413.078 474.556 413.493 474.823C413.907 475.09 414.233 475.475 414.469 475.978C414.707 476.481 414.826 477.086 414.826 477.793C414.826 478.501 414.709 479.107 414.473 479.613C414.237 480.116 413.913 480.504 413.501 480.776C413.089 481.046 412.619 481.181 412.091 481.181C411.693 481.181 411.368 481.114 411.115 480.981C410.865 480.847 410.669 480.691 410.527 480.512C410.385 480.333 410.275 480.174 410.199 480.035H410.122V483.508H408.848ZM410.096 477.78C410.096 478.241 410.163 478.644 410.297 478.991C410.43 479.337 410.623 479.609 410.876 479.805C411.129 479.998 411.439 480.094 411.805 480.094C412.186 480.094 412.504 479.994 412.76 479.792C413.015 479.587 413.209 479.31 413.339 478.961C413.473 478.611 413.54 478.218 413.54 477.78C413.54 477.349 413.474 476.961 413.344 476.617C413.216 476.273 413.022 476.002 412.764 475.803C412.508 475.604 412.189 475.505 411.805 475.505C411.436 475.505 411.123 475.6 410.868 475.79C410.615 475.981 410.423 476.246 410.292 476.587C410.162 476.928 410.096 477.326 410.096 477.78ZM418.975 481.185C418.33 481.185 417.775 481.048 417.309 480.772C416.846 480.494 416.488 480.103 416.235 479.6C415.985 479.094 415.86 478.502 415.86 477.823C415.86 477.153 415.985 476.562 416.235 476.05C416.488 475.539 416.84 475.14 417.292 474.853C417.746 474.566 418.278 474.423 418.886 474.423C419.255 474.423 419.613 474.484 419.959 474.606C420.306 474.728 420.617 474.92 420.893 475.181C421.168 475.442 421.386 475.782 421.545 476.2C421.704 476.614 421.783 477.119 421.783 477.712V478.164H416.58V477.209H420.535C420.535 476.874 420.467 476.577 420.33 476.319C420.194 476.057 420.002 475.852 419.755 475.701C419.511 475.55 419.224 475.475 418.894 475.475C418.536 475.475 418.224 475.563 417.957 475.739C417.692 475.913 417.488 476.14 417.343 476.421C417.201 476.7 417.13 477.002 417.13 477.329V478.075C417.13 478.512 417.207 478.884 417.36 479.191C417.516 479.498 417.734 479.732 418.012 479.894C418.29 480.053 418.616 480.133 418.988 480.133C419.229 480.133 419.449 480.099 419.648 480.03C419.847 479.959 420.019 479.854 420.164 479.715C420.309 479.576 420.42 479.404 420.496 479.2L421.702 479.417C421.606 479.772 421.432 480.083 421.182 480.35C420.935 480.614 420.624 480.82 420.249 480.968C419.877 481.113 419.452 481.185 418.975 481.185ZM423.097 481.053V474.508H424.329V475.548H424.397C424.516 475.195 424.726 474.918 425.027 474.717C425.331 474.512 425.675 474.41 426.059 474.41C426.138 474.41 426.232 474.413 426.34 474.418C426.451 474.424 426.537 474.431 426.6 474.44V475.658C426.549 475.644 426.458 475.629 426.327 475.611C426.196 475.592 426.066 475.582 425.935 475.582C425.634 475.582 425.365 475.646 425.13 475.773C424.897 475.898 424.712 476.073 424.576 476.298C424.439 476.519 424.371 476.772 424.371 477.056V481.053H423.097ZM431.104 474.508V475.53H427.405V474.508H431.104ZM428.42 481.053V473.749C428.42 473.34 428.509 473.001 428.688 472.731C428.867 472.458 429.104 472.255 429.4 472.121C429.695 471.985 430.016 471.917 430.363 471.917C430.618 471.917 430.837 471.938 431.019 471.981C431.201 472.021 431.336 472.057 431.424 472.092L431.126 473.123C431.066 473.106 430.989 473.086 430.895 473.063C430.802 473.038 430.688 473.025 430.555 473.025C430.245 473.025 430.023 473.102 429.89 473.255C429.759 473.408 429.694 473.63 429.694 473.92V481.053H428.42ZM434.818 481.185C434.205 481.185 433.669 481.045 433.212 480.763C432.754 480.482 432.399 480.089 432.146 479.583C431.893 479.077 431.767 478.486 431.767 477.81C431.767 477.131 431.893 476.538 432.146 476.029C432.399 475.521 432.754 475.126 433.212 474.844C433.669 474.563 434.205 474.423 434.818 474.423C435.432 474.423 435.967 474.563 436.425 474.844C436.882 475.126 437.237 475.521 437.49 476.029C437.743 476.538 437.869 477.131 437.869 477.81C437.869 478.486 437.743 479.077 437.49 479.583C437.237 480.089 436.882 480.482 436.425 480.763C435.967 481.045 435.432 481.185 434.818 481.185ZM434.822 480.116C435.22 480.116 435.55 480.011 435.811 479.8C436.072 479.59 436.266 479.31 436.391 478.961C436.518 478.611 436.582 478.227 436.582 477.806C436.582 477.388 436.518 477.005 436.391 476.655C436.266 476.303 436.072 476.021 435.811 475.807C435.55 475.594 435.22 475.488 434.822 475.488C434.422 475.488 434.089 475.594 433.825 475.807C433.564 476.021 433.369 476.303 433.241 476.655C433.116 477.005 433.054 477.388 433.054 477.806C433.054 478.227 433.116 478.611 433.241 478.961C433.369 479.31 433.564 479.59 433.825 479.8C434.089 480.011 434.422 480.116 434.822 480.116ZM439.192 481.053V474.508H440.423V475.548H440.491C440.611 475.195 440.821 474.918 441.122 474.717C441.426 474.512 441.77 474.41 442.153 474.41C442.233 474.41 442.326 474.413 442.434 474.418C442.545 474.424 442.632 474.431 442.694 474.44V475.658C442.643 475.644 442.552 475.629 442.422 475.611C442.291 475.592 442.16 475.582 442.03 475.582C441.728 475.582 441.46 475.646 441.224 475.773C440.991 475.898 440.807 476.073 440.67 476.298C440.534 476.519 440.466 476.772 440.466 477.056V481.053H439.192ZM443.697 481.053V474.508H444.92V475.573H445.001C445.137 475.212 445.36 474.931 445.67 474.729C445.98 474.525 446.35 474.423 446.782 474.423C447.22 474.423 447.586 474.525 447.882 474.729C448.18 474.934 448.4 475.215 448.542 475.573H448.61C448.767 475.224 449.015 474.945 449.356 474.738C449.697 474.528 450.103 474.423 450.575 474.423C451.169 474.423 451.653 474.609 452.028 474.981C452.406 475.353 452.595 475.914 452.595 476.664V481.053H451.321V476.783C451.321 476.34 451.2 476.019 450.958 475.82C450.717 475.621 450.429 475.522 450.093 475.522C449.679 475.522 449.356 475.65 449.126 475.905C448.896 476.158 448.781 476.484 448.781 476.881V481.053H447.511V476.702C447.511 476.347 447.4 476.062 447.179 475.846C446.957 475.63 446.669 475.522 446.313 475.522C446.072 475.522 445.849 475.586 445.644 475.714C445.443 475.839 445.279 476.013 445.154 476.238C445.032 476.462 444.971 476.722 444.971 477.018V481.053H443.697ZM457.023 481.185C456.379 481.185 455.823 481.048 455.357 480.772C454.894 480.494 454.536 480.103 454.283 479.6C454.033 479.094 453.908 478.502 453.908 477.823C453.908 477.153 454.033 476.562 454.283 476.05C454.536 475.539 454.889 475.14 455.34 474.853C455.795 474.566 456.326 474.423 456.934 474.423C457.303 474.423 457.661 474.484 458.008 474.606C458.354 474.728 458.666 474.92 458.941 475.181C459.217 475.442 459.434 475.782 459.593 476.2C459.752 476.614 459.832 477.119 459.832 477.712V478.164H454.629V477.209H458.583C458.583 476.874 458.515 476.577 458.379 476.319C458.242 476.057 458.05 475.852 457.803 475.701C457.559 475.55 457.272 475.475 456.943 475.475C456.585 475.475 456.272 475.563 456.005 475.739C455.741 475.913 455.536 476.14 455.391 476.421C455.249 476.7 455.178 477.002 455.178 477.329V478.075C455.178 478.512 455.255 478.884 455.408 479.191C455.565 479.498 455.782 479.732 456.06 479.894C456.339 480.053 456.664 480.133 457.036 480.133C457.278 480.133 457.498 480.099 457.697 480.03C457.896 479.959 458.068 479.854 458.212 479.715C458.357 479.576 458.468 479.404 458.545 479.2L459.751 479.417C459.654 479.772 459.481 480.083 459.231 480.35C458.984 480.614 458.673 480.82 458.298 480.968C457.925 481.113 457.501 481.185 457.023 481.185ZM461.145 481.053V474.508H462.377V475.548H462.445C462.564 475.195 462.775 474.918 463.076 474.717C463.38 474.512 463.724 474.41 464.107 474.41C464.187 474.41 464.28 474.413 464.388 474.418C464.499 474.424 464.586 474.431 464.648 474.44V475.658C464.597 475.644 464.506 475.629 464.376 475.611C464.245 475.592 464.114 475.582 463.984 475.582C463.682 475.582 463.414 475.646 463.178 475.773C462.945 475.898 462.76 476.073 462.624 476.298C462.488 476.519 462.42 476.772 462.42 477.056V481.053H461.145ZM470.556 476.106L469.401 476.31C469.353 476.163 469.276 476.022 469.171 475.888C469.069 475.755 468.929 475.646 468.753 475.56C468.577 475.475 468.357 475.432 468.093 475.432C467.732 475.432 467.431 475.513 467.189 475.675C466.948 475.834 466.827 476.04 466.827 476.293C466.827 476.512 466.908 476.688 467.07 476.822C467.232 476.955 467.493 477.065 467.854 477.15L468.894 477.388C469.496 477.528 469.945 477.742 470.24 478.032C470.536 478.322 470.684 478.698 470.684 479.161C470.684 479.553 470.57 479.903 470.343 480.209C470.118 480.513 469.804 480.752 469.401 480.925C469 481.099 468.536 481.185 468.007 481.185C467.274 481.185 466.676 481.029 466.213 480.717C465.75 480.401 465.466 479.954 465.361 479.374L466.593 479.187C466.669 479.508 466.827 479.751 467.066 479.915C467.304 480.077 467.615 480.158 467.999 480.158C468.417 480.158 468.75 480.072 469 479.898C469.25 479.722 469.375 479.508 469.375 479.255C469.375 479.05 469.299 478.879 469.145 478.739C468.995 478.6 468.763 478.495 468.451 478.424L467.343 478.181C466.732 478.042 466.28 477.82 465.988 477.516C465.698 477.212 465.553 476.827 465.553 476.361C465.553 475.975 465.661 475.637 465.877 475.347C466.093 475.057 466.391 474.832 466.772 474.67C467.152 474.505 467.588 474.423 468.08 474.423C468.787 474.423 469.344 474.576 469.75 474.883C470.157 475.187 470.425 475.594 470.556 476.106Z" fill="#2C3B4E"/>
<path d="M76.8339 472.326V481.053H75.6237L71.1876 474.653H71.1066V481.053H69.7899V472.326H71.0086L75.449 478.735H75.5299V472.326H76.8339ZM78.5524 481.053V474.508H79.8266V481.053H78.5524ZM79.1959 473.498C78.9743 473.498 78.784 473.424 78.6249 473.276C78.4686 473.126 78.3905 472.947 78.3905 472.739C78.3905 472.529 78.4686 472.35 78.6249 472.202C78.784 472.052 78.9743 471.977 79.1959 471.977C79.4175 471.977 79.6064 472.052 79.7627 472.202C79.9218 472.35 80.0013 472.529 80.0013 472.739C80.0013 472.947 79.9218 473.126 79.7627 473.276C79.6064 473.424 79.4175 473.498 79.1959 473.498ZM84.1978 481.185C83.5643 481.185 83.0188 481.042 82.5615 480.755C82.1069 480.465 81.7575 480.066 81.5132 479.557C81.2688 479.049 81.1467 478.467 81.1467 477.81C81.1467 477.146 81.2717 476.559 81.5217 476.05C81.7717 475.539 82.124 475.14 82.5785 474.853C83.033 474.566 83.5686 474.423 84.185 474.423C84.6822 474.423 85.1254 474.515 85.5146 474.7C85.9038 474.881 86.2177 475.137 86.4563 475.467C86.6978 475.796 86.8413 476.181 86.8867 476.621H85.6467C85.5785 476.315 85.4222 476.05 85.1779 475.829C84.9365 475.607 84.6126 475.496 84.2063 475.496C83.8512 475.496 83.5401 475.59 83.2731 475.778C83.0089 475.962 82.8029 476.227 82.6552 476.57C82.5075 476.911 82.4336 477.315 82.4336 477.78C82.4336 478.258 82.5061 478.67 82.6509 479.016C82.7958 479.363 83.0004 479.631 83.2646 479.822C83.5316 480.012 83.8455 480.107 84.2063 480.107C84.4478 480.107 84.6666 480.063 84.8626 479.975C85.0615 479.884 85.2276 479.755 85.3612 479.587C85.4975 479.42 85.5927 479.218 85.6467 478.982H86.8867C86.8413 479.405 86.7035 479.783 86.4734 480.116C86.2433 480.448 85.935 480.709 85.5487 480.9C85.1651 481.09 84.7149 481.185 84.1978 481.185ZM89.4235 477.167V481.053H88.1493V472.326H89.4064V475.573H89.4874C89.6408 475.221 89.8752 474.941 90.1905 474.734C90.5058 474.526 90.9178 474.423 91.4263 474.423C91.8752 474.423 92.2672 474.515 92.6024 474.7C92.9405 474.884 93.2019 475.16 93.3865 475.526C93.574 475.89 93.6678 476.344 93.6678 476.89V481.053H92.3936V477.043C92.3936 476.563 92.27 476.191 92.0229 475.927C91.7757 475.66 91.432 475.526 90.9916 475.526C90.6905 475.526 90.4206 475.59 90.182 475.718C89.9462 475.846 89.7601 476.033 89.6237 476.28C89.4902 476.525 89.4235 476.82 89.4235 477.167ZM98.0891 481.185C97.4442 481.185 96.8888 481.048 96.4229 480.772C95.9598 480.494 95.6019 480.103 95.349 479.6C95.099 479.094 94.974 478.502 94.974 477.823C94.974 477.153 95.099 476.562 95.349 476.05C95.6019 475.539 95.9541 475.14 96.4058 474.853C96.8604 474.566 97.3916 474.423 97.9996 474.423C98.3689 474.423 98.7269 474.484 99.0735 474.606C99.42 474.728 99.7311 474.92 100.007 475.181C100.282 475.442 100.5 475.782 100.659 476.2C100.818 476.614 100.897 477.119 100.897 477.712V478.164H95.6942V477.209H99.6487C99.6487 476.874 99.5806 476.577 99.4442 476.319C99.3078 476.057 99.1161 475.852 98.8689 475.701C98.6246 475.55 98.3377 475.475 98.0081 475.475C97.6502 475.475 97.3377 475.563 97.0706 475.739C96.8064 475.913 96.6019 476.14 96.457 476.421C96.3149 476.7 96.2439 477.002 96.2439 477.329V478.075C96.2439 478.512 96.3206 478.884 96.474 479.191C96.6303 479.498 96.8476 479.732 97.126 479.894C97.4044 480.053 97.7297 480.133 98.1019 480.133C98.3433 480.133 98.5635 480.099 98.7624 480.03C98.9612 479.959 99.1331 479.854 99.278 479.715C99.4229 479.576 99.5337 479.404 99.6104 479.2L100.816 479.417C100.72 479.772 100.546 480.083 100.296 480.35C100.049 480.614 99.7382 480.82 99.3632 480.968C98.9911 481.113 98.5664 481.185 98.0891 481.185Z" fill="#2C3B4E"/>
</svg>
