<svg width="46" height="47" viewBox="0 0 46 47" fill="none" xmlns="http://www.w3.org/2000/svg">
<path d="M32.3854 33.4674C34.0967 36.4104 35.7888 39.3199 37.4797 42.2263C29.9922 47.9074 18.343 48.594 9.71924 42.0517C-0.204763 34.5171 -1.83586 21.6608 3.4773 12.4064C9.5882 1.76175 21.0237 -0.592376 28.3866 1.13381C28.1874 1.56252 23.7776 10.6291 23.7776 10.6291C23.7776 10.6291 23.429 10.6518 23.2318 10.6556C21.0555 10.747 19.4346 11.2489 17.6973 12.1391C15.7912 13.1248 14.1577 14.5582 12.9396 16.314C11.7215 18.0698 10.9559 20.0945 10.7097 22.2112C10.4529 24.3579 10.7524 26.534 11.58 28.5341C12.2798 30.225 13.2696 31.7267 14.5966 32.9946C16.6323 34.9414 19.0548 36.1469 21.8628 36.5459C24.5219 36.9242 27.0793 36.5497 29.4757 35.3563C30.3745 34.9093 31.1392 34.4156 32.033 33.7385C32.1469 33.6654 32.248 33.5727 32.3854 33.4674Z" fill="#FF492C"/>
<path d="M32.402 7.65721C31.9675 7.23354 31.5648 6.84266 31.164 6.44925C30.9248 6.21472 30.6946 5.97074 30.4496 5.74188C30.3618 5.65929 30.2588 5.54644 30.2588 5.54644C30.2588 5.54644 30.3421 5.37117 30.3777 5.2993C30.8466 4.36686 31.5814 3.68533 32.4529 3.14314C33.4166 2.53903 34.5395 2.23165 35.6795 2.25987C37.1382 2.28824 38.4944 2.64823 39.6389 3.61787C40.4837 4.33344 40.9169 5.2413 40.9933 6.32505C41.1205 8.15338 40.3571 9.55362 38.8411 10.5308C37.9505 11.1058 36.9899 11.5503 36.0268 12.0767C35.4956 12.3673 35.0414 12.6227 34.5223 13.1485C34.0655 13.6762 34.0433 14.1736 34.0433 14.1736L40.9436 14.1648V17.2105H30.2925C30.2925 17.2105 30.2925 17.0025 30.2925 16.9161C30.2518 15.4194 30.428 14.0109 31.1195 12.6517C31.7557 11.4046 32.7442 10.4917 33.9319 9.78878C34.8467 9.24722 35.8099 8.78636 36.7266 8.24732C37.2921 7.91506 37.6916 7.42772 37.6884 6.72098C37.6884 6.11448 37.2431 5.57544 36.607 5.40711C35.1069 5.00614 33.5801 5.64605 32.7862 7.00658C32.6704 7.20517 32.5521 7.4025 32.402 7.65721Z" fill="#FF492C"/>
<path d="M45.7493 30.2301L39.9342 20.2777H28.4268L22.5742 30.3329H34.1662L39.8865 40.238L45.7493 30.2301Z" fill="#FF492C"/>
</svg>
