<svg width="32" height="24" viewBox="0 0 32 24" fill="none" xmlns="http://www.w3.org/2000/svg">
<path d="M13.684 15.843L12.2772 16.5088C11.6603 16.7719 10.9655 16.786 10.3384 16.5481C9.71137 16.3101 9.2008 15.8386 8.91375 15.2325C8.62671 14.6264 8.58549 13.9326 8.79873 13.2968C9.01197 12.6609 9.46312 12.1323 10.0576 11.8218L11.4644 11.156L13.684 15.843Z" stroke="#573DDC" stroke-width="2" stroke-linecap="round" stroke-linejoin="round"/>
<path d="M13.6844 15.843C16.4366 14.5405 19.5127 14.0818 22.5252 14.5249L23.4582 14.6609L18.5756 4.34778L18.0896 5.15568C16.5226 7.76627 14.2173 9.8542 11.4648 11.156L13.6844 15.843Z" stroke="#573DDC" stroke-width="2" stroke-linecap="round" stroke-linejoin="round"/>
<path d="M13.6855 15.843C13.9759 16.4571 14.3881 17.0057 14.8971 17.4556C15.406 17.9054 16.0011 18.2471 16.6462 18.4599" stroke="#573DDC" stroke-width="2" stroke-linecap="round" stroke-linejoin="round"/>
<path d="M31 7.5395C30.9999 7.09661 30.7894 6.67187 30.4147 6.3586L24.5853 1.48905C24.2104 1.17598 23.7021 1.00008 23.172 0.999981L4 0.999982C3.60598 0.999835 3.2158 1.06457 2.85174 1.19049C2.48769 1.31641 2.1569 1.50104 1.87829 1.73383C1.59968 1.96662 1.3787 2.24301 1.228 2.54719C1.0773 2.85138 0.999823 3.1774 0.999998 3.50661L0.999999 20.2175C0.999824 20.5467 1.0773 20.8727 1.228 21.1769C1.37871 21.4811 1.59968 21.7575 1.87829 21.9903C2.1569 22.2231 2.48769 22.4077 2.85174 22.5336C3.2158 22.6595 3.60598 22.7243 4 22.7241L28 22.7241C28.7956 22.7241 29.5587 22.46 30.1213 21.9899C30.6839 21.5199 31 20.8823 31 20.2175L31 7.5395Z" stroke="#573DDC" stroke-width="2" stroke-linecap="round" stroke-linejoin="round"/>
</svg>
